<?xml version="1.0" standalone="no"?>
<!DOCTYPE svg PUBLIC "-//W3C//DTD SVG 20010904//EN"
 "http://www.w3.org/TR/2001/REC-SVG-20010904/DTD/svg10.dtd">
<svg version="1.0" xmlns="http://www.w3.org/2000/svg"
 width="300.000000pt" height="225.000000pt" viewBox="0 0 300.000000 225.000000"
 preserveAspectRatio="xMidYMid meet">
<metadata>
Created by potrace 1.10, written by Peter Selinger 2001-2011
</metadata>
<g transform="translate(0.000000,225.000000) scale(0.100000,-0.100000)"
fill="#000000" stroke="none">
<path d="M843 2164 c-7 -20 1 -27 57 -48 56 -22 80 -43 80 -71 0 -12 9 -30 20
-40 11 -10 20 -24 20 -32 0 -7 4 -13 10 -13 5 0 7 -6 4 -14 -3 -8 -1 -23 5
-33 9 -15 10 -13 5 10 -4 19 -2 27 8 27 10 0 13 -10 10 -35 -2 -19 -7 -35 -11
-35 -3 0 -7 -10 -7 -23 -1 -12 -40 -222 -87 -467 -47 -245 -88 -458 -90 -475
-3 -16 -11 -56 -18 -88 -12 -53 -12 -60 3 -68 10 -5 15 -16 11 -25 -4 -11 -9
-12 -19 -4 -10 9 -14 4 -20 -24 -3 -20 -10 -34 -14 -31 -7 4 -41 -120 -43
-162 -1 -15 -8 -23 -19 -23 -10 0 -18 -5 -18 -11 0 -5 -5 -7 -10 -4 -6 4 -9 1
-8 -7 2 -7 -4 -13 -13 -13 -18 0 -49 -23 -49 -36 0 -18 25 -8 76 31 29 22 60
40 69 40 28 0 15 -25 -23 -42 -20 -10 -45 -22 -55 -28 -9 -5 -25 -14 -34 -18
-10 -5 -28 -29 -40 -53 -19 -36 -23 -56 -20 -111 3 -74 15 -93 79 -134 31 -20
46 -23 80 -18 80 12 171 105 185 187 4 30 8 35 19 26 12 -9 14 -4 14 27 0 43
-28 112 -54 133 -20 17 -22 15 -31 -27 -4 -22 -3 -32 6 -32 6 0 18 -8 25 -18
16 -20 19 -66 4 -57 -6 4 -10 -5 -10 -20 0 -14 -7 -42 -15 -63 -44 -104 -154
-147 -209 -81 -31 37 -34 86 -7 144 17 38 78 101 88 91 2 -2 0 -37 -6 -77 -9
-62 -8 -76 5 -89 13 -13 14 -13 9 1 -6 16 20 233 30 249 3 5 1 11 -5 15 -18
11 -10 25 14 25 29 0 42 -15 21 -24 -23 -9 -18 -26 8 -23 19 2 22 -2 20 -33
l-3 -35 15 40 c22 57 17 68 -40 81 l-50 10 4 39 c3 42 38 125 51 125 14 0 23
61 11 73 -16 16 -14 27 5 27 12 0 14 7 9 30 -5 21 -3 30 6 30 7 0 9 3 6 6 -3
4 -2 14 2 23 5 9 12 36 15 61 3 25 9 61 13 80 4 19 7 47 7 62 1 18 5 23 12 17
8 -6 5 -38 -8 -111 -10 -57 -18 -124 -18 -150 0 -32 -4 -48 -12 -48 -9 0 -8
-3 2 -9 8 -6 18 -7 24 -4 5 3 6 1 2 -6 -4 -6 -12 -8 -18 -5 -8 5 -9 1 -4 -11
4 -10 3 -21 -2 -24 -13 -10 -41 -91 -31 -91 6 0 8 -4 4 -9 -3 -6 20 -29 50
-52 59 -45 94 -89 59 -74 -61 25 -74 28 -81 21 -4 -4 3 -15 15 -25 73 -51 105
-89 143 -167 21 -46 49 -89 61 -95 14 -7 62 -10 140 -7 68 2 118 0 118 -5 0
-5 -8 -7 -18 -5 -16 5 -19 -2 -20 -53 -1 -32 -8 -76 -16 -98 -15 -45 -13 -51
15 -44 15 4 19 14 20 52 0 25 8 71 17 101 l18 55 194 7 c107 4 249 8 315 10
l120 3 20 -40 c45 -89 173 -132 262 -87 149 77 164 268 26 349 -107 62 -263 8
-297 -104 -8 -26 -32 -47 -40 -35 -3 5 1 17 9 28 8 10 25 35 38 54 12 19 42
48 65 64 37 26 55 31 116 34 84 5 116 -7 183 -69 72 -66 89 -41 23 33 -78 89
-214 117 -316 65 -60 -30 -122 -107 -131 -160 -4 -27 -9 -34 -23 -30 -10 3
-193 0 -405 -6 -344 -10 -390 -10 -411 4 -22 14 -23 14 -17 -2 14 -39 36 -49
103 -46 36 1 65 2 65 3 0 1 8 3 18 5 9 2 17 -2 17 -8 0 -7 5 -5 10 3 7 11 10
11 10 2 0 -7 5 -10 12 -6 19 12 175 11 198 -1 29 -16 13 -21 -70 -23 -36 -1
-90 -6 -120 -11 -30 -5 -59 -5 -65 -1 -14 11 -66 9 -59 -2 4 -6 -2 -5 -13 1
-11 6 -22 8 -25 6 -2 -2 -20 0 -39 5 -32 9 -36 15 -57 84 -30 95 -94 192 -155
233 -25 17 -51 33 -56 35 -5 2 -6 20 -1 43 4 22 8 35 9 28 1 -15 41 -4 48 14
3 7 0 19 -6 26 -11 14 -9 57 4 90 6 14 4 16 -11 10 -13 -5 -16 -3 -11 10 6 16
104 510 173 865 28 146 41 195 53 200 21 8 31 22 31 50 0 26 0 26 44 6 41 -20
69 -13 64 16 -2 16 -22 28 -88 50 -94 34 -93 33 -86 21 3 -5 -1 -11 -9 -15 -8
-3 -17 -1 -20 4 -4 6 0 10 7 10 9 0 9 3 -2 10 -13 8 -12 10 3 10 21 0 23 16 2
24 -8 3 -15 1 -15 -4 0 -18 -28 -10 -58 15 -34 28 -57 25 -69 -11 -6 -18 -12
-21 -23 -14 -12 7 -13 13 -3 28 10 17 6 21 -35 35 -58 21 -71 21 -79 1z m210
-125 c18 -20 18 -21 -2 -14 -14 4 -20 1 -23 -11 -3 -17 -4 -17 -20 0 -10 10
-18 24 -18 32 0 21 43 17 63 -7z m57 6 c7 -8 21 -15 31 -15 23 0 65 -40 51
-49 -5 -3 -12 -15 -15 -26 -4 -11 -5 -3 -4 17 2 30 -1 38 -17 42 -12 3 -25 1
-31 -5 -7 -7 -5 -8 6 -4 10 4 19 3 22 -2 8 -13 -23 -81 -40 -88 -18 -6 -37 15
-24 28 13 13 1 47 -18 48 -11 0 -10 3 7 11 22 11 30 28 12 28 -5 0 -10 7 -10
15 0 8 4 15 9 15 5 0 14 -7 21 -15z m-30 -459 c-5 -13 -6 -27 -3 -30 4 -3 1
-6 -6 -6 -9 0 -11 -8 -7 -22 6 -26 -12 -138 -25 -152 -19 -21 -20 6 -4 86 20
104 34 148 46 148 5 0 5 -10 -1 -24z m1235 -1036 c23 -6 14 -8 -40 -9 -38 -1
-81 -4 -95 -7 l-25 -5 25 15 c26 16 85 19 135 6z m1 -75 c19 -8 40 -20 48 -27
24 -25 48 -68 38 -68 -6 0 -16 9 -22 19 -18 34 -75 62 -128 63 -60 0 -100 -20
-141 -69 -20 -25 -31 -32 -31 -21 0 24 47 76 89 98 44 23 99 25 147 5z m35
-64 c42 -41 54 -75 44 -127 -10 -57 -60 -103 -129 -119 -32 -8 -55 -11 -52 -8
3 4 -12 14 -34 24 -23 10 -48 32 -58 49 -9 16 -24 30 -32 30 -9 0 -22 6 -28
13 -14 13 -14 13 -64 17 -28 3 -25 4 17 11 28 4 -17 5 -100 2 -149 -4 -180 -1
-96 11 92 12 51 18 -87 12 -79 -3 -141 -2 -138 3 3 4 56 9 118 11 149 4 160 3
167 -7 9 -12 31 -14 31 -3 0 6 11 8 25 6 13 -3 27 0 30 5 4 5 17 2 30 -7 36
-23 69 -11 123 45 62 64 77 71 141 69 47 -1 59 -6 92 -37z m-1551 15 c0 -8
-14 -23 -30 -33 -52 -30 -83 -86 -90 -161 l-6 -67 -11 50 c-7 28 -8 54 -3 59
5 5 6 15 3 22 -3 8 0 14 6 14 6 0 11 8 11 18 0 18 44 65 90 95 30 21 30 21 30
3z"/>
<path d="M2181 419 c-18 -11 -31 -23 -27 -26 3 -3 16 1 29 10 14 9 44 16 68
15 35 0 49 -6 71 -30 33 -36 45 -88 28 -129 -14 -33 -44 -54 -62 -43 -7 4 -8
3 -4 -4 5 -8 -5 -12 -33 -12 -28 0 -48 8 -70 26 -17 14 -31 29 -31 32 0 4 38
7 84 6 l83 0 -8 30 c-5 17 -9 32 -9 33 0 2 -8 3 -19 3 -10 0 -24 7 -31 15 -15
18 -7 19 22 4 16 -9 19 -8 16 3 -3 7 -13 15 -24 16 -10 2 -24 10 -31 19 -10
13 -17 12 -55 -6 -62 -30 -100 -55 -102 -66 0 -6 17 -11 39 -12 22 -1 35 0 29
3 -6 2 -9 16 -6 30 3 19 7 22 13 12 7 -10 9 -8 9 7 0 17 2 18 11 5 8 -11 12
-12 16 -2 2 6 11 12 19 12 9 0 13 -4 9 -9 -3 -5 5 -17 17 -25 l22 -16 -22 0
c-13 0 -20 4 -17 10 3 6 -3 10 -15 10 -12 0 -18 -4 -15 -10 3 -5 1 -10 -5 -10
-6 0 -8 -5 -5 -11 4 -6 14 -8 22 -5 8 3 11 1 8 -4 -3 -5 -24 -15 -45 -21 -22
-7 -40 -16 -40 -20 0 -20 56 -70 90 -80 33 -10 47 -9 85 5 109 42 123 168 26
233 -42 29 -95 29 -140 2z m114 -128 c-6 -5 -23 -10 -40 -11 -42 -3 -47 -1
-40 10 3 6 25 10 48 10 25 0 37 -4 32 -9z"/>
<path d="M826 865 c-23 -35 -30 -79 -17 -102 10 -15 10 -14 5 9 -3 16 2 43 15
72 22 51 21 58 -3 21z"/>
<path d="M871 387 c-6 -8 -8 -17 -4 -21 4 -4 -2 -15 -14 -24 -15 -12 -24 -33
-29 -69 -6 -49 -5 -53 14 -53 35 0 52 38 49 113 -1 37 -3 67 -3 67 -1 0 -7 -6
-13 -13z m-1 -116 c-6 -24 -17 -41 -25 -41 -11 0 -12 5 -5 23 5 12 11 35 15
51 4 20 9 26 16 19 7 -7 7 -24 -1 -52z"/>
</g>
</svg>
